<svg width="1000" height="1000" xmlns="http://www.w3.org/2000/svg" xmlns:svg="http://www.w3.org/2000/svg">
 <metadata>Svg Vector Icons : http://www.sfont.cn</metadata>
 <defs>
  <filter height="200%" width="200%" y="-50%" x="-50%" id="svg_1_blur">
   <feGaussianBlur stdDeviation="1.2"/>
  </filter>
  <filter id="svg_13_blur">
   <feGaussianBlur stdDeviation="0.2"/>
  </filter>
 </defs>
 <g>
  <title>background</title>
  <rect fill="none" id="canvas_background" height="402" width="582" y="-1" x="-1"/>
 </g>
 <g>
  <title>Layer 1</title>
  <ellipse stroke="#ffbd19" ry="307.49999" rx="307.49999" id="svg_5" cy="420.759269" cx="442.99999" stroke-width="26" fill="#eeedff"/>
  <g id="svg_1" filter="url(#svg_1_blur)" stroke="null">
   <g id="svg_2" transform="translate(0,511) scale(0.10000000149011612,-0.10000000149011612) " stroke="null">
    <path fill="#46673D" id="svg_3" d="m2997.775528,3323.590618c-65.309604,-22.772018 -119.529723,-70.507312 -152.754341,-135.643868l-30.989189,-58.56275l0,-1004.718471l0,-1004.718471l28.797585,-56.414437c15.516518,-31.45116 46.505706,-71.62444 68.64084,-88.982725c78.590682,-64.019438 99.630018,-65.093589 670.760301,-62.945287l518.005971,3.26542l226.918,477.395949c123.956745,262.565627 226.918,480.661379 228.013797,486.075102c1.095797,4.339571 -17.708111,15.209982 -42.078673,23.889135c-24.370563,8.679142 -65.309604,36.907849 -89.636331,62.945276c-104.057051,106.34102 -84.113511,270.170628 40.939041,351.548351c66.4054,43.395723 171.558238,47.735294 244.6261,10.827445c49.793097,-24.963276 53.124322,-24.963276 58.647152,-6.53084c11.045649,34.71658 100.725815,116.094304 161.608386,147.545464c53.124322,26.037438 71.92823,30.377009 162.704193,30.377009l102.917419,0l-3.331226,320.097191l-3.331226,320.097191l-33.224618,57.488588c-33.224618,60.754018 -91.87177,108.489312 -159.372967,130.187179c-59.742949,20.623715 -1940.30887,17.401261 -1997.860215,-3.222454l0.000001,0.000003zm531.287049,-336.381325c27.657953,-15.209993 63.074175,-48.809456 79.686478,-72.698581c25.466359,-39.056152 29.893392,-55.340296 29.893392,-128.038876c0,-72.698581 -4.427033,-88.982725 -29.893392,-128.038876c-96.298793,-142.131741 -316.55433,-139.983439 -403.999068,5.413723c-44.270267,73.772742 -47.601493,149.736743 -9.949852,225.657778c64.213807,127.007691 209.209889,169.329263 334.262441,97.704833l0.000001,-0.000001zm542.376534,21.740833c96.298782,-28.228707 170.462441,-125.847608 170.462441,-224.583626c-1.095797,-143.205893 -157.181363,-263.639778 -294.419197,-226.774895c-67.501197,17.358295 -130.619207,68.359009 -159.372967,125.847608c-19.899704,40.130303 -23.23093,64.019438 -19.899704,118.242606c6.618626,105.266858 58.647152,172.508761 161.608396,208.342459c53.080487,18.432436 75.21562,18.432436 141.621021,-1.074151l0.00001,0l0,-0.000001zm588.838394,3.222454c74.163659,-18.432447 149.423115,-94.396447 168.227012,-169.243331c54.22013,-225.700744 -221.39517,-382.999512 -396.240809,-225.700744c-131.715004,116.094304 -76.399088,341.795047 94.063364,393.869923c55.403577,16.284134 71.972055,16.284134 133.950433,1.074151l0,0.000001zm-1163.299913,-671.602566c16.612304,-5.413733 47.601493,-27.111589 68.640829,-45.587002c161.608396,-149.736733 56.455548,-409.036939 -167.131226,-409.036939c-58.647142,0 -152.75433,52.074876 -190.362146,105.266858c-80.826111,113.946001 -34.320415,276.658492 98.490386,343.94335c38.703612,19.506598 143.85646,22.772018 190.362156,5.413733l0.000001,0zm610.973527,-8.679153c126.192185,-64.019438 168.227023,-210.490751 96.298793,-330.924636c-71.92823,-121.508026 -242.390671,-149.736733 -354.205981,-58.605705c-64.213796,51.000714 -87.444737,106.34101 -81.921907,194.206607c4.427023,90.056876 43.17447,151.885046 118.433926,190.941197c63.11801,32.568278 160.5126,33.685395 221.39517,4.382537l-0.000001,0zm-609.877731,-658.626808c160.512589,-65.093589 197.024608,-278.849771 65.309604,-391.678654c-50.932729,-43.395723 -107.388277,-60.754018 -180.412304,-55.340296c-190.405981,15.209993 -282.277751,243.059029 -156.085567,385.19078c66.4054,73.772732 180.412304,99.81017 271.188267,61.828159l0,0.00001l0,0.000001zm607.686137,-5.413733c79.686478,-37.982 136.142027,-124.773446 136.142027,-210.490751c0,-124.773456 -109.579871,-233.262769 -235.772045,-233.262769c-136.142037,0 -240.199078,100.884321 -240.199078,232.188617c0,72.698581 9.949852,100.927287 56.455548,151.885035c73.067852,82.451885 185.978959,106.34102 283.373548,59.679867l0,0.000001z" stroke="null"/>
    <path fill="#46673D" id="svg_4" d="m4997.915007,2400.249871c-111.771474,-39.056152 -100.725826,-19.549554 -542.376534,-948.304024l-406.234507,-851.716308l0,-75.964011c0,-86.791446 22.135144,-139.940473 84.113511,-197.472037c26.562166,-24.963276 298.84623,-155.150455 944.184008,-450.284359l907.628153,-415.567779l77.494885,1.074151c88.540544,0 142.804489,21.697856 201.451641,82.451874c25.466359,26.037438 142.760653,260.417324 400.711677,803.981013c484.781343,1018.854312 443.798476,926.649133 443.798476,1002.613134c0,79.186454 -39.843244,163.829608 -95.202996,206.15118c-35.416211,26.037438 -1757.704962,819.191006 -1840.722676,847.376747c-49.793097,17.358285 -117.294294,15.167016 -174.845639,-4.339571l0,-0.00001l0.000001,0zm1385.79088,-1039.435051c157.181374,-90.056866 178.176875,-301.621778 43.17447,-418.833199c-56.455548,-47.735305 -102.961244,-65.093589 -175.985271,-65.093589c-73.067862,0 -119.529723,17.358285 -175.985271,65.093589c-79.686489,69.433161 -109.579871,163.829608 -79.686489,261.491475c36.512019,123.699295 143.900285,199.62034 268.952838,190.941187c48.6973,-3.222454 84.113511,-14.092865 119.529723,-33.599463zm-681.849786,-194.249573c81.921907,-40.130313 144.996082,-139.983449 144.996082,-230.040315c0,-60.754018 -34.320415,-137.79217 -84.113511,-185.527475c-166.035419,-162.755457 -447.173538,-46.661143 -447.173538,185.527475c0,72.698581 22.135133,128.038866 69.736626,176.848322c86.34894,89.025691 202.547437,108.532278 316.554341,53.191993zm-656.383437,-209.373644c143.900285,-86.791446 168.227023,-274.510189 53.124322,-394.944074c-105.152848,-109.563464 -264.525805,-115.020152 -374.105675,-13.018714c-135.04624,126.964725 -104.057051,336.338359 61.978367,419.907361c81.921918,40.130303 181.551936,35.790732 259.002986,-11.944573z" stroke="null"/>
   </g>
  </g>
  <polygon id="svg_7" fill="#46673D"/>
  <polygon id="svg_8" fill="#46673D"/>
  <polygon id="svg_9" fill="#46673D"/>
  <text fill="#46673D" stroke-width="0" stroke-dasharray="null" stroke-linejoin="null" stroke-linecap="null" x="305.949272" y="602.468882" id="svg_13" font-size="30" font-family="Serif" text-anchor="middle" xml:space="preserve" transform="matrix(5.707392662492416,0,0,5.70409307649932,-1381.6703821063757,-2805.7618662136774) " stroke="null" font-weight="bold" font-style="italic" filter="url(#svg_13_blur)">SP</text>
 </g>
</svg>